<svg width="40" height="10" viewBox="0 0 40 10" fill="none" xmlns="http://www.w3.org/2000/svg">
<g clip-path="url(#clip0_5471_256)">
<path fill-rule="evenodd" clip-rule="evenodd" d="M7.44794 6.03H7.28056V5.30401L7.12461 5.46329L7.02734 5.36322L7.30203 5.08973H7.44794V6.03ZM7.85508 6.0455C7.74352 6.0455 7.65241 6.01072 7.58185 5.94119L7.65909 5.81715C7.71251 5.87162 7.77783 5.89888 7.85508 5.89888C7.93615 5.89888 7.9984 5.8686 8.0418 5.80798C8.0852 5.74734 8.10688 5.67474 8.10688 5.59019V5.56199C8.08209 5.59673 8.04633 5.62751 7.99961 5.65431C7.95284 5.68108 7.90325 5.6945 7.8508 5.6945C7.76018 5.6945 7.68413 5.6677 7.62263 5.61413C7.56111 5.56056 7.53034 5.48584 7.53034 5.38999C7.53034 5.3007 7.56303 5.22576 7.62835 5.16515C7.69369 5.10455 7.77833 5.07422 7.88228 5.07422C7.97195 5.07422 8.04704 5.09702 8.10759 5.14261C8.16818 5.18816 8.21133 5.24643 8.23708 5.3174C8.26283 5.38835 8.27571 5.46942 8.27571 5.56056C8.27571 5.70154 8.23899 5.81761 8.16553 5.90878C8.0921 5.99992 7.98864 6.0455 7.85508 6.0455ZM7.89516 5.55209C7.93615 5.55209 7.97527 5.54223 8.01248 5.52251C8.04966 5.50277 8.08018 5.47597 8.10402 5.44217C8.09925 5.38296 8.07947 5.33127 8.04467 5.28708C8.00983 5.24291 7.95857 5.22081 7.89088 5.22081C7.83269 5.22081 7.78643 5.23776 7.75209 5.2716C7.71777 5.30541 7.70058 5.34301 7.70058 5.38434C7.70058 5.43885 7.71918 5.48043 7.7564 5.50912C7.79357 5.53777 7.83983 5.55209 7.89516 5.55209ZM8.61848 6.03H8.43537L8.7959 5.23493H8.30089V5.08973H8.98902V5.20391L8.61848 6.03ZM9.61222 6.03H9.44484V5.81715H8.98991V5.68461L9.38189 5.08973H9.61222V5.67192H9.73955V5.81715H9.61222V6.03ZM9.44484 5.67192V5.23776L9.15442 5.67192H9.44484Z" fill="#FF0000"/>
<path fill-rule="evenodd" clip-rule="evenodd" d="M7.34841 7.22782H6.65741V7.09812C6.85676 6.94962 6.99244 6.83944 7.06445 6.76755C7.13644 6.69565 7.17245 6.62775 7.17245 6.56383C7.17245 6.5178 7.15554 6.48231 7.12165 6.45742C7.0878 6.4325 7.04702 6.42006 6.99934 6.42006C6.89443 6.42006 6.80859 6.45763 6.74185 6.53284L6.64453 6.42428C6.68557 6.37542 6.73732 6.33805 6.79978 6.31223C6.86225 6.28636 6.92782 6.27344 6.99647 6.27344C7.09377 6.27344 7.1758 6.2993 7.24255 6.35098C7.30933 6.40267 7.34268 6.47363 7.34268 6.56383C7.34268 6.64466 7.30837 6.72502 7.23968 6.8049C7.17102 6.88479 7.06612 6.97736 6.92496 7.08262H7.34841V7.22782ZM7.97589 7.20244C7.92534 7.23064 7.86811 7.24472 7.80423 7.24472C7.74032 7.24472 7.68308 7.23064 7.63255 7.20244C7.582 7.17424 7.54192 7.13663 7.51236 7.08965C7.48282 7.04267 7.46039 6.99098 7.44512 6.9346C7.42987 6.87821 7.42223 6.81948 7.42223 6.75838C7.42223 6.69728 7.42987 6.63856 7.44512 6.58216C7.46039 6.52577 7.48282 6.47433 7.51236 6.42779C7.54192 6.3813 7.582 6.34394 7.63255 6.31575C7.68308 6.28755 7.74032 6.27344 7.80423 6.27344C7.86811 6.27344 7.92534 6.28755 7.97589 6.31575C8.02643 6.34394 8.06651 6.3813 8.09608 6.42779C8.12564 6.47433 8.14803 6.52577 8.16331 6.58216C8.17856 6.63856 8.18619 6.69728 8.18619 6.75838C8.18619 6.81948 8.17856 6.87821 8.16331 6.9346C8.14803 6.99098 8.12564 7.04267 8.09608 7.08965C8.06651 7.13663 8.02643 7.17424 7.97589 7.20244ZM7.644 7.00225C7.67832 7.06617 7.73172 7.09812 7.80423 7.09812C7.8767 7.09812 7.93012 7.06617 7.96446 7.00225C7.99877 6.93836 8.01596 6.85705 8.01596 6.75838C8.01596 6.69544 8.00952 6.63949 7.99664 6.59063C7.98378 6.54177 7.96089 6.50114 7.92796 6.46868C7.89506 6.43627 7.85382 6.42006 7.80423 6.42006C7.75464 6.42006 7.71337 6.43627 7.68048 6.46868C7.64757 6.50114 7.62469 6.54177 7.61182 6.59063C7.59895 6.63949 7.5925 6.69544 7.5925 6.75838C7.5925 6.85705 7.60966 6.93836 7.644 7.00225ZM8.93382 7.22782H8.24283V7.09812C8.44218 6.94962 8.57785 6.83944 8.64987 6.76755C8.72185 6.69565 8.75786 6.62775 8.75786 6.56383C8.75786 6.5178 8.74095 6.48231 8.70706 6.45742C8.67322 6.4325 8.63243 6.42006 8.58475 6.42006C8.47985 6.42006 8.394 6.45763 8.32726 6.53284L8.22995 6.42428C8.27098 6.37542 8.32273 6.33805 8.38519 6.31223C8.44765 6.28636 8.51323 6.27344 8.58189 6.27344C8.6792 6.27344 8.76121 6.2993 8.82796 6.35098C8.89474 6.40267 8.9281 6.47363 8.9281 6.56383C8.9281 6.64466 8.89378 6.72502 8.8251 6.8049C8.75645 6.88479 8.65153 6.97736 8.51037 7.08262H8.93382V7.22782ZM9.61138 7.22782H9.44401V7.01497H8.98907V6.88243L9.38106 6.28755H9.61138V6.86974H9.73871V7.01497H9.61138V7.22782ZM9.44401 6.86974V6.43558L9.15358 6.86974H9.44401Z" fill="#FF0000"/>
<path fill-rule="evenodd" clip-rule="evenodd" d="M12.7146 6.00953C12.5506 8.23857 10.6636 9.99676 8.35968 9.99676C7.2376 9.99676 6.21457 9.57956 5.44109 8.89425C5.57483 8.66517 5.6828 8.4197 5.76173 8.16182C6.41808 8.83255 7.33938 9.24989 8.35968 9.24989C10.2448 9.24989 11.792 7.82557 11.9541 6.00953H12.7146ZM4.26758 4.18974C4.86843 2.6035 6.39188 1.46048 8.1949 1.39453V2.14188C6.62718 2.21134 5.32002 3.26635 4.89609 4.69316C4.70699 4.50298 4.49625 4.33377 4.26758 4.18974Z" fill="#FF0000"/>
<path fill-rule="evenodd" clip-rule="evenodd" d="M15.7031 8.18431V3.20703H19.5885V8.18431H18.8114V3.97296H16.4802V8.18431H15.7031Z" fill="#FF0000"/>
<path fill-rule="evenodd" clip-rule="evenodd" d="M20.1719 8.18431V3.20703H23.2809V3.97296H20.9489V5.12021L23.2809 5.12018V5.88588H20.9489V7.4186H23.2809V8.18431H20.1719Z" fill="#FF0000"/>
<path fill-rule="evenodd" clip-rule="evenodd" d="M24.2518 7.4186C24.432 7.4186 24.6403 7.2831 24.6403 7.03937V3.20703H28.1391L28.127 8.18431H27.3601V3.97296H25.4173V7.03453C25.4172 7.73796 24.8013 8.18431 24.2518 8.18431H23.8633V7.4186H24.2518Z" fill="#FF0000"/>
<path fill-rule="evenodd" clip-rule="evenodd" d="M32.4143 3.20703H33.1916V5.12021L35.5228 5.12018V3.20703H36.3V8.18431H35.5108V5.88588H33.2035V8.18431H32.4023L32.4143 3.20703Z" fill="#FF0000"/>
<path fill-rule="evenodd" clip-rule="evenodd" d="M36.8945 3.20703H40.001V3.97296H37.6697V8.18431H36.8945V3.20703Z" fill="#FF0000"/>
<path fill-rule="evenodd" clip-rule="evenodd" d="M28.709 8.18431V3.20703H31.8181V3.97296L29.486 3.97298V5.12021H31.8181V5.88588H29.486V7.41863H31.8181V8.18431H28.709Z" fill="#FF0000"/>
<path fill-rule="evenodd" clip-rule="evenodd" d="M11.2953 5.37517C11.2208 4.69816 10.9108 4.0908 10.4476 3.63441C10.0204 3.21349 9.46288 2.92092 8.83984 2.82043V3.56013C9.73018 3.75421 10.4193 4.47581 10.5521 5.37517H11.2953ZM8.83984 0C11.7114 0.231533 13.9902 2.52493 14.1487 5.37517H13.3755C13.2959 4.13374 12.7522 3.01654 11.9134 2.19002C11.11 1.39841 10.0359 0.873546 8.83984 0.761684V0ZM12.7204 5.37517C12.6418 4.31165 12.1717 3.35531 11.4513 2.64543C10.7664 1.97061 9.85537 1.51861 8.83984 1.40917V2.16929C9.64361 2.2748 10.3638 2.64104 10.9097 3.17902C11.4914 3.7522 11.8753 4.52022 11.9521 5.37517H12.7204Z" fill="#FF0000"/>
<path fill-rule="evenodd" clip-rule="evenodd" d="M2.36574 4.26953C3.9718 4.26953 5.27377 5.5524 5.27377 7.13492C5.27377 8.71749 3.9718 10.0004 2.36574 10.0004C1.57996 10.0004 0.867076 9.69316 0.34375 9.19408L1.2064 8.88512C1.53962 9.09986 1.93785 9.22484 2.36574 9.22484C3.53712 9.22484 4.48669 8.28917 4.48669 7.13492C4.48669 5.98072 3.53712 5.04505 2.36574 5.04505C2.02905 5.04505 1.71074 5.1225 1.42799 5.26007V4.42201C1.72221 4.32326 2.0376 4.26953 2.36574 4.26953Z" fill="#FF0000"/>
<path fill-rule="evenodd" clip-rule="evenodd" d="M4.49111 2.14686H0V1.39062H4.49111V2.14686Z" fill="#FF0000"/>
<path fill-rule="evenodd" clip-rule="evenodd" d="M0.767458 1.39062V5.37376H0V1.39062H0.767458Z" fill="#FF0000"/>
</g>
<defs>
<clipPath id="clip0_5471_256">
<rect width="40" height="10" fill="white"/>
</clipPath>
</defs>
</svg>
